<svg xmlns="http://www.w3.org/2000/svg" viewBox="0 0 11 7" role="img" aria-hidden="true">
	<g id="down-caret">
		<path d="M0.194628 0.195006C0.132644 0.256921 0.0834713 0.330447 0.049921 0.411379C0.0163717 0.492311 -0.0008955 0.579062 -0.0008955 0.666672C-0.0008955 0.754282 0.0163717 0.841034 0.049921 0.921966C0.0834713 1.0029 0.132644 1.07642 0.194628 1.13834L5.02796 5.97167C5.08988 6.03365 5.1634 6.08283 5.24434 6.11638C5.32527 6.14993 5.41202 6.16719 5.49963 6.16719C5.58724 6.16719 5.67399 6.14993 5.75492 6.11638C5.83585 6.08283 5.90938 6.03365 5.9713 5.97167L10.8046 1.13834C10.8666 1.0764 10.9157 1.00286 10.9492 0.921936C10.9827 0.841008 11 0.754269 11 0.666672C11 0.489763 10.9297 0.320099 10.8046 0.195006C10.7427 0.133066 10.6692 0.083932 10.5882 0.0504102C10.5073 0.0168885 10.4206 -0.000364939 10.333 -0.000364939C10.1561 -0.000364939 9.98639 0.0699119 9.8613 0.195006L5.49963 4.55667L1.13796 0.195006C1.07605 0.133021 1.00252 0.0838488 0.921589 0.0502993C0.840657 0.0167498 0.753906 -0.000518799 0.666296 -0.000518799C0.578686 -0.000518799 0.491934 0.0167498 0.411002 0.0502993C0.33007 0.0838488 0.256543 0.133021 0.194628 0.195006Z">
		</path>
	</g>
</svg>
