<svg xmlns="http://www.w3.org/2000/svg" viewBox="0 0 27 22" aria-hidden="true">
	<path fill-rule="evenodd" clip-rule="evenodd" d="M13.11 5.85234L13.1686 6.80391L12.1931 6.68739C8.64248 6.24074 5.54055 4.72601 2.90684 2.18203L1.61925 0.919758L1.28759 1.8519C0.58527 3.9298 1.03398 6.12422 2.49715 7.60011C3.27751 8.41574 3.10193 8.53225 1.75581 8.04676C1.28759 7.89141 0.877905 7.77489 0.838886 7.83315C0.702324 7.96908 1.17054 9.73627 1.54121 10.4354C2.04844 11.4064 3.08242 12.3579 4.21394 12.9211L5.16988 13.3677L4.03836 13.3872C2.94586 13.3872 2.90684 13.4066 3.02389 13.8144C3.41407 15.0767 4.95528 16.4166 6.67207 16.9992L7.88163 17.407L6.82815 18.0285C5.26743 18.9218 3.43358 19.4267 1.59974 19.4655C0.721833 19.4849 0 19.5626 0 19.6209C0 19.8151 2.3801 20.9026 3.76523 21.3298C7.92065 22.5921 12.8564 22.0483 16.5631 19.8927C19.1968 18.3586 21.8306 15.3097 23.0596 12.3579C23.7229 10.7849 24.3862 7.91083 24.3862 6.53203C24.3862 5.63873 24.4448 5.52221 25.5373 4.45413C26.1811 3.8327 26.7858 3.15302 26.9029 2.95882C27.098 2.58985 27.0785 2.58985 26.0835 2.91998C24.4253 3.50257 24.1911 3.42489 25.0105 2.55101C25.6153 1.92958 26.3371 0.80324 26.3371 0.473106C26.3371 0.414847 26.0445 0.511945 25.7128 0.686722C25.3617 0.880918 24.5813 1.17221 23.9961 1.34699L22.9426 1.67712L21.9866 1.03628C21.4599 0.686722 20.7185 0.298329 20.3284 0.181812C19.3334 -0.0900634 17.8117 -0.0512241 16.9143 0.25949C14.4757 1.13337 12.9345 3.38605 13.11 5.85234Z" >
	</path>
</svg>
