<svg xmlns="http://www.w3.org/2000/svg" viewBox="0 0 26 22" aria-hidden="true">
	<g id="vimeo">
		<path d="M21.674 0.00474188C18.145 -0.110335 15.7568 1.86911 14.5065 5.9456C15.1504 5.68047 15.7763 5.5465 16.3864 5.5465C17.6734 5.5465 18.2431 6.26883 18.0908 7.71717C18.0155 8.59407 17.4469 9.87007 16.3864 11.5449C15.3219 13.2223 14.5268 14.0597 13.9985 14.0597C13.3126 14.0597 12.6884 12.7636 12.1184 10.175C11.9271 9.41259 11.5853 7.47122 11.0959 4.34609C10.637 1.45167 9.42449 0.0992292 7.45294 0.289332C6.61891 0.365768 5.36942 1.12957 3.70193 2.57508C2.48544 3.68016 1.25287 4.78552 0 5.88976L1.19364 7.43089C2.33285 6.63042 2.99934 6.23217 3.18437 6.23217C4.05788 6.23217 4.87386 7.60238 5.63286 10.3428C6.31345 12.8595 6.99968 15.3729 7.68338 17.886C8.70187 20.6284 9.95728 22 11.4341 22C13.8228 22 16.7474 19.7535 20.1963 15.259C23.533 10.956 25.2558 7.56571 25.372 5.0876C25.5251 1.77575 24.2926 0.0797677 21.674 0.00474188Z">
		</path>
	</g>
</svg>
