<svg xmlns="http://www.w3.org/2000/svg" viewBox="0 0 24 24" aria-hidden="true">
	<g id="pinterest">
		<path d="M0 12C0 17.0831 3.16275 21.4258 7.62605 23.1746C7.5211 22.2257 7.42749 20.7692 7.6686 19.731C7.88559 18.7949 9.07552 13.7672 9.07552 13.7672C9.07552 13.7672 8.7167 13.0481 8.7167 11.9858C8.7167 10.3165 9.68254 9.07127 10.8881 9.07127C11.9106 9.07127 12.4056 9.83997 12.4056 10.7618C12.4056 11.7915 11.7504 13.3303 11.4114 14.7571C11.1292 15.9527 12.0113 16.9257 13.1885 16.9257C15.3216 16.9257 16.9611 14.6763 16.9611 11.4299C16.9611 8.55643 14.8975 6.54816 11.9489 6.54816C8.53516 6.54816 6.53114 9.10956 6.53114 11.7561C6.53114 12.7871 6.92684 13.8934 7.42324 14.4947C7.5211 14.6139 7.53528 14.7174 7.50691 14.8394C7.41614 15.2181 7.21333 16.0336 7.17362 16.1995C7.12114 16.4193 6.99917 16.4661 6.77083 16.3612C5.27314 15.6634 4.33708 13.4707 4.33708 11.7121C4.33708 7.92672 7.08711 4.44912 12.2652 4.44912C16.4278 4.44912 19.6629 7.41614 19.6629 11.3802C19.6629 15.5159 17.0547 18.8446 13.4367 18.8446C12.2198 18.8446 11.0767 18.212 10.6853 17.466C10.6853 17.466 10.0839 19.7565 9.93783 20.3182C9.66694 21.3606 8.93511 22.6668 8.44723 23.4639C9.56908 23.8128 10.7618 24 12 24C18.6276 24 24 18.6276 24 12C24 5.371 18.6276 0 12 0C5.37241 0 0 5.371 0 12Z">
		</path>
	</g>
</svg>
