<svg xmlns="http://www.w3.org/2000/svg" viewBox="0 0 30 22" aria-hidden="true">
	<g id="youtube">
		<path d="M15.3238 0C16.1951 0.00375404 18.686 0.0231499 21.1668 0.123362L21.7612 0.148998C23.835 0.244388 25.8098 0.400481 26.7195 0.655905C28.0103 1.01731 29.0269 2.08218 29.3719 3.43447C29.953 5.70601 29.9955 10.265 29.9986 10.92V11.0782C29.9955 11.7332 29.953 16.292 29.3719 18.5637C29.0269 19.916 28.0103 20.9809 26.7195 21.3425C24.5968 21.9383 16.6758 21.9935 15.2271 21.9986H14.7706C14.0315 21.996 11.6076 21.9803 9.1285 21.8865L8.5333 21.8625L7.94099 21.8352C5.97698 21.7388 4.14455 21.5857 3.27807 21.3425C1.98722 20.9809 0.970625 19.916 0.625625 18.5637C0.0752976 16.4116 0.00818452 12.2067 0 11.2131V10.785C0.00818452 9.79144 0.0752976 5.58645 0.625625 3.43447C0.970625 2.08218 1.98722 1.01731 3.27807 0.655905C5.35761 0.0720775 13.0011 0.00720775 14.6739 0H15.3238ZM11.9989 6.9991V16.9991L19.9989 11.9993L11.9989 6.9991Z">
		</path>
	</g>
</svg>
